<svg width="20" height="20" viewBox="0 0 20 20" fill="none" xmlns="http://www.w3.org/2000/svg">
<g id="Frame">
<path id="Vector" d="M19.5741 16.3932L11.7345 2.8158C10.7756 1.1558 9.20848 1.1558 8.24984 2.8158L0.410168 16.3932C-0.548478 18.0549 0.235796 19.4104 2.15175 19.4104H17.8325C19.7485 19.4104 20.532 18.0548 19.5741 16.3932ZM8.91537 6.66826C9.19709 6.36367 9.55525 6.21135 9.99206 6.21135C10.4291 6.21135 10.7869 6.36207 11.0689 6.66216C11.3491 6.96294 11.4892 7.33909 11.4892 7.79141C11.4892 8.18058 10.9043 11.0423 10.7093 13.1242H9.30067C9.12959 11.0423 8.49502 8.18058 8.49502 7.79141C8.49506 7.34595 8.63533 6.97135 8.91537 6.66826ZM11.0492 16.5677C10.7529 16.8563 10.4003 17.0001 9.99216 17.0001C9.58413 17.0001 9.23142 16.8563 8.93516 16.5677C8.6397 16.2798 8.49286 15.931 8.49286 15.5215C8.49286 15.114 8.6397 14.7615 8.93516 14.4661C9.23142 14.1705 9.58413 14.0227 9.99216 14.0227C10.4003 14.0227 10.7529 14.1705 11.0492 14.4661C11.3445 14.7615 11.4917 15.114 11.4917 15.5215C11.4917 15.931 11.3445 16.2798 11.0492 16.5677Z" fill="#FF3F38"/>
</g>
</svg>
